/* XPM */
static char *essai_collec_x321645695096[] = {
/* columns rows colors chars-per-pixel */
"32 32 49 1 ",
"  c #A5784D",
". c #AA7B4F",
"X c #AB7B4F",
"o c #AB7C4F",
"O c #A17D51",
"+ c #AA7C50",
"@ c #A97C53",
"# c #AF7F52",
"$ c #A77E5A",
"% c #A98354",
"& c #AF8756",
"* c #A4835D",
"= c #B18153",
"- c #B38254",
"; c #B38255",
": c #B48355",
"> c #B08756",
", c #B58455",
"< c #B5865B",
"1 c #BA8758",
"2 c #BB8758",
"3 c #B98859",
"4 c #BB8858",
"5 c #BF8A59",
"6 c #BD8C5D",
"7 c #C08B5A",
"8 c #C18D5B",
"9 c #C48E5B",
"0 c #C48E5C",
"q c #C58F5C",
"w c #C59363",
"e c #C79463",
"r c #CD9866",
"t c #CE9967",
"y c #C2AF94",
"u c #C4AD95",
"i c #A3C68F",
"p c #A6C790",
"a c #A4C792",
"s c #A9C890",
"d c #8BE394",
"f c #8CE394",
"g c #8AE696",
"h c #8DE697",
"j c #8FE598",
"k c #B2D4A3",
"l c #A9E5AC",
"z c #BCE1B9",
"x c #BEE1BB",

/* pixels */
"gggggggggggggggggggggggggggggggg",
"gggggggggggggggggggggggggggggggg",
"gggggggggggggggggggggggggggggggg",
"gggggggggggggggggggggggggggggggg",
"ggggggggjggggggggggggggggggggggg",
"ggggggghjjjjjjjjjjjjjjjjgggggggg",
"gggggggkuuuuuuuuyuuuuuuyhggggggg",
"gggggggs,55555555555555&dggggggg",
"gggggggs38223223222243q&dggggggg",
"gggggggs37,;::;:;,;:,,9&fggggggg",
"gggggggs28;,::::,;::::0&fggggggg",
"gggggggs35,;:::;;,::,,q&fggggggg",
"gggggggs35,:::;;,;:::,0&fggggggg",
"gggggggs383555555355250&fggggggg",
"gggggggs3qqq8qqqqq880qq&fggggggg",
"gggggggs6tttttttttttttr:fggggggg",
"gggggggi<eeeeeeeeeeeeew%dggggggg",
"gggggggi+::::::,,,:,,,:Odggggggg",
"ggggggga+&++++..++o+..=Odggggggg",
"ggggggda@#            :Odggggggg",
"gggggggp@#++XX .......:Odggggggg",
"ggggggga@#++XX..XX....:Odggggggg",
"ggggggfp+#+XXXX.X.....,Odggggggg",
"gggggggp@::#:=:;:=;=;==Odggggggg",
"ggggggga*$$$$$$$$$$$$$$*dggggggg",
"ggggggglxzxxxxxzzzzzzzzzjggggggg",
"ggggggggggggjgggjgggjggggggggggg",
"gggggggggggggggggggggggggggggggg",
"gggggggggggggggggggggggggggggggg",
"gggggggggggggggggggggggggggggggg",
"gggggggggggggggggggggggggggggggg",
"gggggggggggggggggggggggggggggggg"
};