/* XPM */
static char *essai_porte_ouverte_vrai_x321645713085[] = {
/* columns rows colors chars-per-pixel */
"32 32 94 2 ",
"   c gray30",
".  c #4E4E4D",
"X  c #4F4E4D",
"o  c #4F4E4E",
"O  c #50504F",
"+  c #525150",
"@  c #555451",
"#  c #5A5854",
"$  c #735D4C",
"%  c #736E64",
"&  c #7A7568",
"*  c #89684C",
"=  c #A1754C",
"-  c #A6784D",
";  c #A6784E",
":  c #AA7B4F",
">  c #AA7C50",
",  c #AA7C51",
"<  c #AC7F56",
"1  c #857766",
"2  c #817B6D",
"3  c #A9825B",
"4  c #AD835A",
"5  c #AE855D",
"6  c #958C7A",
"7  c #958D7B",
"8  c #B08962",
"9  c #AE9170",
"0  c #B69877",
"q  c #B79C7C",
"w  c #B89C7C",
"e  c #B89E7D",
"r  c #A79C86",
"t  c #ABA089",
"y  c #BAA181",
"u  c #BBA484",
"i  c #BCA586",
"p  c #B1A68E",
"a  c #B6AB8F",
"s  c #BEAB8C",
"d  c #B6AA91",
"f  c #B6AE92",
"g  c #B9AC91",
"h  c #B9AC92",
"j  c #BAAD92",
"k  c #BCAF93",
"l  c #BAAE94",
"z  c #B8B196",
"x  c #B9B197",
"c  c #BDB094",
"v  c #BEB195",
"b  c #BFB296",
"n  c #B0BF96",
"m  c #BBB39A",
"M  c #BCB19B",
"N  c #BCB59D",
"B  c #C1B397",
"V  c #C0B398",
"C  c #C0B498",
"Z  c #C3B498",
"A  c #C3B69B",
"S  c #C4B79A",
"D  c #C4B79B",
"F  c #C0BCA5",
"G  c #C2BDA7",
"H  c #C6BDAB",
"J  c #A3C78F",
"K  c #A7CA94",
"L  c #ADCE9D",
"P  c #B2C098",
"I  c #B5C29D",
"U  c #B5C49E",
"Y  c #A4D99C",
"T  c #A7D99E",
"R  c #9EE39E",
"E  c #9DE69F",
"W  c #B3CDA2",
"Q  c #BBCBA8",
"!  c #BFCEAD",
"~  c #A8D9A0",
"^  c #ABDEA6",
"/  c #AFDFA9",
"(  c #B3D3A5",
")  c #BADAB0",
"_  c #BBDAB1",
"`  c #9FE5A0",
"'  c #A0E5A1",
"]  c #ADE4AB",
"[  c #B1E2AE",
"{  c #C4C9AF",
"}  c #C0CEAE",
"|  c #CBC4B4",
" . c #C5D3B6",
".. c #C2E2BC",
/* pixels */
"E E E E E E E E ` E ] L { H M l M N | Q ) E E E E E E E E E E E ",
"E E E E E E E E T n d j v V D D D V v k j x W ] E E E E E E E E ",
"E E E E E E [ I f k A A D D D D D D D D D B j x ( E E E E E E E ",
"E E E E E ~ N j A D D A D l d r p d V D D D D m j I R E E E E E ",
"E E E E T f v A A A l 7 % + + o + + # 2 r v A D D a P ` E E E E ",
"E E E / x v D D v 7 # X o   X   o o     o % t A D D a I E E E E ",
"E E R F k D D l & o     o       X       o   + 7 b D A a  .' E E ",
"E E ! j A D B 1                 X       X X o O q D A D j ^ E E ",
"E [ l A D D 9 $ X X X                         X * t D D x I E E ",
"' } j A D u = $ X X                           X * 5 b D S a ^ E ",
"E m v D D 5 = $                               X * ; q D D m Q E ",
"^ a A D u : = $                               X * ; 5 D D B F ' ",
"L j S S 0 : = $                                 * ; > s D D a E ",
"K c S A 8 : = $                               X * ; > y D D g ..",
"J c A b 4 : = $                             X o * ; : w D D g ) ",
"J c D D 4 : = $                         X X X o * ; : w D D g _ ",
"J k D Z < : = $                               X * ; : q D D j ) ",
"J k D Z < : = $                               X * ; : q D D j ) ",
"J k D D < : = $                               X * - : q S A j ) ",
"J k D B < : = $                               X * - : 0 D A j ) ",
"J k D D < : = $                               X * - , q D D j ) ",
"J B D Z < : = $                               X * - : q D D l ) ",
"J k D D < , = $                               X * - , q D D g ) ",
"J k D D < , = $                               X * - , w D D h _ ",
"J k D D 4 : = $                               X * - : q D D g ) ",
"J k D D : : = $                               X * - : q D D g _ ",
"J k D Z 4 : = $                               X * - : q D D g _ ",
"J B D V < : = $                               X * - : q D D g _ ",
"J c S B < : = $                               X * - , q D D g _ ",
"J c S D < : = $                               X * - : q D D h _ ",
"J c D Z < : = $                               X * - , q D D h _ ",
"J c D Z < : = $                                 * - , w D D h _ "
};