/* XPM */
static char *b71f3c5c7960442ae85549b54dcc71c5jpmYkC6j8ioENAQU[] = {
/* columns rows colors chars-per-pixel */
"32 32 75 1 ",
". c black",
"X c #010101",
"o c #000002",
"O c #1A1308",
"+ c #1A120C",
"@ c #131215",
"# c #220906",
"$ c #200C05",
"% c #200C07",
"& c #2F1A11",
"* c #2D1912",
"= c #2E1812",
"- c #301714",
"; c #301812",
": c gray19",
"> c #4D301C",
", c #5F402B",
"< c #60412C",
"1 c #714F32",
"2 c #734F32",
"3 c #744E30",
"4 c #744E32",
"5 c #714F34",
"6 c #734E34",
"7 c #714F36",
"8 c #744D34",
"9 c #764C36",
"0 c #6F503F",
"q c #715030",
"w c #705032",
"e c #7B5237",
"r c #32267E",
"t c #47464D",
"y c #526658",
"u c #646464",
"i c #656565",
"p c #8A5D3C",
"a c #AA7452",
"s c #A27768",
"d c #A6746E",
"f c #BD8C5D",
"g c #B58E67",
"h c #C5885B",
"j c #C48C5B",
"k c #C68C5B",
"l c #C68B5D",
"z c #C78A5F",
"x c #C68B5F",
"c c #C48C5D",
"v c #C78C5E",
"b c #C58761",
"n c #C48B61",
"m c #C28C61",
"M c #C18C63",
"N c #C28B65",
"B c #C48A67",
"V c #C48D64",
"C c #322580",
"Z c #312783",
"A c #352981",
"S c #3C2E9E",
"D c #37499C",
"F c #25868C",
"G c #2F9599",
"H c #2D979C",
"J c #2F969C",
"K c #36939A",
"L c #32959A",
"P c #428985",
"I c #428987",
"U c gray75",
"Y c gray77",
"T c #CDCDCD",
"R c #FEFEFE",
"  c #8FE69A",
/* pixels */
"                                ",
"                                ",
"                                ",
"                                ",
"                                ",
"                                ",
"                                ",
"                                ",
"           uuuuuuuuuuu          ",
"          .----------;.         ",
"          .***********.         ",
"          .%***clllll*.         ",
"          .%14aBllllV4.         ",
"          .%1phsl>emd1.         ",
"          .%#llll**ll9.         ",
"          .%kllllllll4.         ",
"           .1111111114.         ",
"          .JJJJgbfyJFF.         ",
"          .N90GJLKJJFF.         ",
"          .wcnPJJJJJl66Y        ",
"          .1lmPJJJJJ1lk+R       ",
"           .w6SSSSDJ6lkOR       ",
"           :CASCrrCS.<,T        ",
"             .t.  @t.           ",
"             R.   U.            ",
"                                ",
"                                ",
"                                ",
"                                ",
"                                ",
"                                ",
"                                "
};
