/* XPM */
static char *_157123ec9f34423a678a85ae589663beVfkmOwWciPgIqZA[] = {
/* columns rows colors chars-per-pixel */
"32 32 123 2 ",
"   c #398C58",
".  c #3A8E5A",
"X  c #3B8F5A",
"o  c #3D8E5B",
"O  c #3D8F5B",
"+  c #3B925B",
"@  c #3D905B",
"#  c #3B925C",
"$  c #3E925C",
"%  c #3E935D",
"&  c #3C945D",
"*  c #3D955D",
"=  c #3E985F",
"-  c #3E9860",
";  c #3F9B61",
":  c #408E5C",
">  c #418F5D",
",  c #448F5F",
"<  c #41905D",
"1  c #44935F",
"2  c #40965F",
"3  c #40975F",
"4  c #469060",
"5  c #499162",
"6  c #4A9363",
"7  c #4B9264",
"8  c #4C9264",
"9  c #4D9564",
"0  c #409B62",
"q  c #409C62",
"w  c #409D62",
"e  c #439E64",
"r  c #439F64",
"t  c #439F65",
"y  c #529468",
"u  c #55956A",
"i  c #58976C",
"p  c #58966D",
"a  c #5B9A6F",
"s  c #5C9A6F",
"d  c #5F9971",
"f  c #619B73",
"g  c #689F79",
"h  c #699F79",
"j  c #43A065",
"k  c #44A065",
"l  c #44A066",
"z  c #44A166",
"x  c #68A078",
"c  c #68A179",
"v  c #6EA37D",
"b  c #71A17F",
"n  c #6FB37E",
"m  c #69DB78",
"M  c #6DDD7C",
"N  c #6EDC7D",
"B  c #6DDE7C",
"V  c #6EDF7D",
"C  c #6FDF7E",
"Z  c #71DE7F",
"A  c #70DF7F",
"S  c #76A783",
"D  c #78A786",
"F  c #7CAA89",
"G  c #7DBB89",
"H  c #74C382",
"J  c #7BC688",
"K  c #77D285",
"L  c #71DD80",
"P  c #72DF81",
"I  c #73DF81",
"U  c #73DF82",
"Y  c #74DC82",
"T  c #75DE83",
"R  c #75DF83",
"E  c #7FD58B",
"W  c #82AE8E",
"Q  c #81BA8D",
"!  c #8AAF94",
"~  c #8BB195",
"^  c #8AB394",
"/  c #85BE90",
"(  c #88BF93",
")  c #8DBF97",
"_  c #8EB398",
"`  c #8FB398",
"'  c #8EB498",
"]  c #91B79B",
"[  c #93B59C",
"{  c #95B69E",
"}  c #92B89B",
"|  c #97B89F",
" . c #9ABAA2",
".. c #9BBCA3",
"X. c #82CA8E",
"o. c #83CA8F",
"O. c #82CC8D",
"+. c #84D38F",
"@. c #83D88E",
"#. c #86C691",
"$. c #8CC196",
"%. c #8CCD96",
"&. c #8EC298",
"*. c #90C49A",
"=. c #94C69D",
"-. c #90CF99",
";. c #86D390",
":. c #87DA92",
">. c #8BDB95",
",. c #8FD198",
"<. c #92D39B",
"1. c #92D29C",
"2. c #95D49E",
"3. c #90DB99",
"4. c #90DE9A",
"5. c #94DF9D",
"6. c #96E09E",
"7. c #98C7A1",
"8. c #9FCDA7",
"9. c #9BD7A3",
"0. c #9CDCA4",
"q. c #A0CEA8",
"w. c #A2DBAA",
/* pixels */
"A A A A A A A A A A A A A A A A I N A Y U N C C C C P C C C P C ",
"A A A A A A A A A A A Y A I Y >.#.S b ^ o.1.6.P C P C C P C P C ",
"A A A A A A A A A A @.} c v G n o % % X > 4 _ U C C P P C P C C ",
"A A A A A A A A A @.g @ 2 @ X X * ; ; ; * # a 0.P P C C C C C P ",
"A A A A A A A U Y *.@ = j k 3 = e j j j j ; X p G Y A P P P C C ",
"A A A A A A U q.F s @ q j z z z l j z z j ; ; * < =.P C C C C P ",
"A A A A A A Y c + + = 3 j j z z l l z z j j e ; % g N A C C C P ",
"A A A U 9.J ^ 5 = q z = = j l l l l z j e j j e * 7 H 9.U P C C ",
"A A A >.s O O * q j j e k l l k l l z l q z j j ; X o 5 ] 5.U N ",
"A A A w.8 # 0 q l l l l k l l k % = l z l z z z e ; ; * % =.U U ",
"A A Y 2.a + q q l q 0 q 3 3 l q % % l l z z z z z z 0 e + c %.R ",
"A A 2.s X = e l l < @ 0 3 l l l z 3 z z z z z z z t z 0 * % y <.",
"A U W X ; ; q q l q 3 j l j % * j l l z z z z z l l l q 0 * < O.",
"A N 1 * ; ; @ @ < e l j l q @ @ k l z z z z z z l l l q 0 % f 3.",
"A K > * 0 % O @ @ 3 l 3 l l l j z z z z z z z z l l l l ; 0 O [ ",
"+.a X = q 0 @ @ @ q l l l l l l z z z z z z z z z z l q 0 0 * , ",
"| + q q q q = % 3 z z z z z z z z z z z z z z z z z z j = q =   ",
"b @ q q q k l l j 3 j l z z z z z z z z z z z z z z j q q q % i ",
"^ X q q q j l j @ @ % k z z l z z z z z z z z z z z z j q = @ $.",
"-.> * q q q l j @ @ % k z z l l z z z z z z z z z z z j ; = @ ^ ",
"%.1 * 0 q q j j q 3 q l q l l l z z z z z z z z l l q q q q = 1 ",
"9.8 % q q q = j k k z l q j l l z z z z z z z z l j q q q q % X ",
"Y ^ @ ; q q q q q = l l l l l l z z z z z z z j q q q q ; ; + u ",
"Y $.O * q q q q q = q j j l l l z z z z z z k q q q q q ; % 4 $.",
"B >.D O * X X ; q q q q q j l j e e j j j e q q q q ; ; % 7 8.A ",
"B B >.$.` ` 7 + q q q q q q q q ; q ; q e q q q q q * @ > _ Y N ",
"B B B C P Y _ X * 0 q 0 q q q q ; ; q q ; ; q q ; * o ] #.4.N N ",
"C B B B C N ;.g + @ @ % q q q q ; ; q q q q q ; # 5  .6.C B B C ",
"C C B B B B C @.( | ^ : = = q % o * 0 ; * q * @ < 7.U B B B C C ",
"A C C C B B B B A A 3.` < @ @ 5 Q F , > O O @ S ) 5.B C C C A C ",
"N P N U C C B B B B N 5.=... .%.U N -.o.( 9 S @.A A C C A A A A ",
"C C A C C C C C N A B B A U U B N M B B A m B B A A A A A A A A "
};